<svg width="152" height="32" viewBox="0 0 152 32" fill="none" xmlns="http://www.w3.org/2000/svg">
<path d="M16 9.33333V28" stroke="#2E8555" stroke-width="2.66667" stroke-linecap="round" stroke-linejoin="round"/>
<path d="M4.00008 24C3.64646 24 3.30732 23.8595 3.05727 23.6095C2.80722 23.3594 2.66675 23.0203 2.66675 22.6667V5.33333C2.66675 4.97971 2.80722 4.64057 3.05727 4.39052C3.30732 4.14048 3.64646 4 4.00008 4H10.6667C12.0812 4 13.4378 4.5619 14.438 5.5621C15.4382 6.56229 16.0001 7.91885 16.0001 9.33333C16.0001 7.91885 16.562 6.56229 17.5622 5.5621C18.5624 4.5619 19.9189 4 21.3334 4H28.0001C28.3537 4 28.6928 4.14048 28.9429 4.39052C29.1929 4.64057 29.3334 4.97971 29.3334 5.33333V22.6667C29.3334 23.0203 29.1929 23.3594 28.9429 23.6095C28.6928 23.8595 28.3537 24 28.0001 24H20.0001C18.9392 24 17.9218 24.4214 17.1717 25.1716C16.4215 25.9217 16.0001 26.9391 16.0001 28C16.0001 26.9391 15.5787 25.9217 14.8285 25.1716C14.0784 24.4214 13.0609 24 12.0001 24H4.00008Z" stroke="#2E8555" stroke-width="2.66667" stroke-linecap="round" stroke-linejoin="round"/>
<path d="M56.9023 13.8867V16.6289H47.9961V13.8867H56.9023ZM49.0391 6.9375V24H45.5234V6.9375H49.0391ZM59.4102 6.9375V24H55.9062V6.9375H59.4102ZM73.918 21.2578V24H64.8359V21.2578H73.918ZM65.9844 6.9375V24H62.4688V6.9375H65.9844ZM72.7344 13.8867V16.5586H64.8359V13.8867H72.7344ZM73.9062 6.9375V9.69141H64.8359V6.9375H73.9062ZM82.1211 20.4375L86.1406 6.9375H90.0547L84.1133 24H81.5352L82.1211 20.4375ZM78.418 6.9375L82.4258 20.4375L83.0352 24H80.4336L74.5273 6.9375H78.418ZM102.863 24H99.1484L99.1719 21.2578H102.863C103.785 21.2578 104.562 21.0508 105.195 20.6367C105.828 20.2148 106.305 19.6016 106.625 18.7969C106.953 17.9922 107.117 17.0195 107.117 15.8789V15.0469C107.117 14.1719 107.023 13.4023 106.836 12.7383C106.656 12.0742 106.387 11.5156 106.027 11.0625C105.668 10.6094 105.227 10.2695 104.703 10.043C104.18 9.80859 103.578 9.69141 102.898 9.69141H99.0781V6.9375H102.898C104.039 6.9375 105.082 7.13281 106.027 7.52344C106.98 7.90625 107.805 8.45703 108.5 9.17578C109.195 9.89453 109.73 10.7539 110.105 11.7539C110.488 12.7461 110.68 13.8516 110.68 15.0703V15.8789C110.68 17.0898 110.488 18.1953 110.105 19.1953C109.73 20.1953 109.195 21.0547 108.5 21.7734C107.812 22.4844 106.988 23.0352 106.027 23.4258C105.074 23.8086 104.02 24 102.863 24ZM101.141 6.9375V24H97.625V6.9375H101.141ZM112.484 17.7891V17.543C112.484 16.6133 112.617 15.7578 112.883 14.9766C113.148 14.1875 113.535 13.5039 114.043 12.9258C114.551 12.3477 115.176 11.8984 115.918 11.5781C116.66 11.25 117.512 11.0859 118.473 11.0859C119.434 11.0859 120.289 11.25 121.039 11.5781C121.789 11.8984 122.418 12.3477 122.926 12.9258C123.441 13.5039 123.832 14.1875 124.098 14.9766C124.363 15.7578 124.496 16.6133 124.496 17.543V17.7891C124.496 18.7109 124.363 19.5664 124.098 20.3555C123.832 21.1367 123.441 21.8203 122.926 22.4062C122.418 22.9844 121.793 23.4336 121.051 23.7539C120.309 24.0742 119.457 24.2344 118.496 24.2344C117.535 24.2344 116.68 24.0742 115.93 23.7539C115.188 23.4336 114.559 22.9844 114.043 22.4062C113.535 21.8203 113.148 21.1367 112.883 20.3555C112.617 19.5664 112.484 18.7109 112.484 17.7891ZM115.859 17.543V17.7891C115.859 18.3203 115.906 18.8164 116 19.2773C116.094 19.7383 116.242 20.1445 116.445 20.4961C116.656 20.8398 116.93 21.1094 117.266 21.3047C117.602 21.5 118.012 21.5977 118.496 21.5977C118.965 21.5977 119.367 21.5 119.703 21.3047C120.039 21.1094 120.309 20.8398 120.512 20.4961C120.715 20.1445 120.863 19.7383 120.957 19.2773C121.059 18.8164 121.109 18.3203 121.109 17.7891V17.543C121.109 17.0273 121.059 16.543 120.957 16.0898C120.863 15.6289 120.711 15.2227 120.5 14.8711C120.297 14.5117 120.027 14.2305 119.691 14.0273C119.355 13.8242 118.949 13.7227 118.473 13.7227C117.996 13.7227 117.59 13.8242 117.254 14.0273C116.926 14.2305 116.656 14.5117 116.445 14.8711C116.242 15.2227 116.094 15.6289 116 16.0898C115.906 16.543 115.859 17.0273 115.859 17.543ZM129.945 5.98828V24H126.57V5.98828H129.945ZM137.938 11.3203L132.43 17.6016L129.477 20.5898L128.246 18.1523L130.59 15.1758L133.883 11.3203H137.938ZM134.434 24L130.684 18.1406L133.016 16.1016L138.324 24H134.434ZM146.891 20.9648V11.3203H150.266V24H147.09L146.891 20.9648ZM147.266 18.3633L148.262 18.3398C148.262 19.1836 148.164 19.9688 147.969 20.6953C147.773 21.4141 147.48 22.0391 147.09 22.5703C146.699 23.0938 146.207 23.5039 145.613 23.8008C145.02 24.0898 144.32 24.2344 143.516 24.2344C142.898 24.2344 142.328 24.1484 141.805 23.9766C141.289 23.7969 140.844 23.5195 140.469 23.1445C140.102 22.7617 139.812 22.2734 139.602 21.6797C139.398 21.0781 139.297 20.3555 139.297 19.5117V11.3203H142.672V19.5352C142.672 19.9102 142.715 20.2266 142.801 20.4844C142.895 20.7422 143.023 20.9531 143.188 21.1172C143.352 21.2812 143.543 21.3984 143.762 21.4688C143.988 21.5391 144.238 21.5742 144.512 21.5742C145.207 21.5742 145.754 21.4336 146.152 21.1523C146.559 20.8711 146.844 20.4883 147.008 20.0039C147.18 19.5117 147.266 18.9648 147.266 18.3633Z" fill="#2E8555"/>
</svg>
